<?xml version="1.0" standalone="no"?>
<!DOCTYPE svg PUBLIC "-//W3C//DTD SVG 20010904//EN"
 "http://www.w3.org/TR/2001/REC-SVG-20010904/DTD/svg10.dtd">
<svg version="1.0" xmlns="http://www.w3.org/2000/svg"
 width="500.000000pt" height="500.000000pt" viewBox="0 0 500.000000 500.000000"
 preserveAspectRatio="xMidYMid meet">

<g transform="translate(0.000000,500.000000) scale(0.100000,-0.100000)"
fill="#000000" stroke="none">
<path d="M2395 3287 c-53 -45 -40 -148 22 -176 109 -50 206 84 122 168 -39 40
-103 43 -144 8z"/>
<path d="M2729 3297 c-26 -20 -39 -53 -39 -97 0 -83 83 -126 157 -80 58 35 62
112 11 168 -16 17 -32 22 -67 22 -25 0 -53 -6 -62 -13z"/>
<path d="M705 3021 c-57 -16 -84 -30 -124 -66 -35 -32 -81 -108 -81 -135 0
-14 36 -27 102 -35 l56 -7 18 37 c23 49 56 69 115 69 65 0 82 -17 87 -92 l4
-59 -88 -11 c-165 -21 -236 -53 -284 -129 -26 -41 -30 -56 -30 -119 0 -81 16
-127 57 -166 39 -38 73 -48 156 -48 78 0 155 28 191 69 25 28 29 27 49 -14 9
-20 28 -40 41 -46 20 -10 31 -5 84 33 34 23 62 51 62 60 0 9 -10 34 -22 55
-21 35 -23 53 -28 255 l-5 216 -30 44 c-48 67 -99 90 -209 94 -50 2 -104 -1
-121 -5z m173 -468 c-6 -86 -24 -118 -83 -146 -70 -34 -125 3 -125 85 0 41 5
52 34 81 27 27 46 36 93 44 92 14 86 19 81 -64z"/>
<path d="M1514 3020 c-29 -9 -68 -42 -99 -85 -13 -19 -14 -17 -15 22 0 23 -4
44 -10 48 -23 14 -126 14 -147 -1 l-23 -14 0 -350 0 -349 22 -15 c27 -19 138
-22 156 -4 9 9 12 74 12 232 0 122 3 238 7 259 14 86 108 126 170 73 l28 -24
5 -269 5 -268 84 -3 c61 -2 87 1 92 10 5 7 9 123 9 258 0 259 2 269 50 307 24
19 94 16 121 -6 24 -19 24 -20 27 -282 2 -173 7 -268 14 -276 8 -10 34 -13 92
-11 l81 3 3 302 c2 289 1 305 -19 347 -28 61 -82 95 -162 103 -84 7 -141 -10
-189 -56 -21 -21 -38 -43 -38 -49 0 -22 -15 -12 -28 17 -21 49 -82 83 -154 87
-35 2 -77 -1 -94 -6z"/>
<path d="M3225 3021 c-156 -38 -246 -207 -231 -434 10 -146 76 -256 186 -309
65 -31 196 -31 262 1 182 88 254 359 152 576 -30 64 -111 138 -173 158 -54 17
-142 21 -196 8z m162 -163 c37 -35 47 -83 47 -223 -1 -99 -5 -139 -18 -168
-17 -40 -67 -77 -102 -77 -37 0 -88 43 -106 90 -31 83 -20 305 20 367 28 45
116 51 159 11z"/>
<path d="M4051 3023 c-13 -3 -46 -27 -72 -53 l-49 -49 0 39 c0 49 -18 60 -94
60 -91 0 -86 20 -86 -379 0 -256 3 -350 12 -359 7 -7 42 -12 89 -12 61 0 78 3
83 16 3 9 6 121 6 250 0 251 4 275 52 308 27 19 96 20 119 3 36 -27 39 -52 39
-304 0 -180 3 -252 12 -261 16 -16 164 -16 174 0 4 6 7 141 7 299 -1 261 -3
291 -21 331 -41 94 -141 135 -271 111z"/>
<path d="M2381 3006 c-8 -9 -11 -116 -9 -372 l3 -359 85 0 85 0 3 364 c2 285
-1 366 -10 373 -22 14 -144 9 -157 -6z"/>
<path d="M2707 3014 c-4 -4 -7 -156 -7 -338 0 -413 -4 -457 -41 -497 -18 -20
-37 -29 -58 -29 -27 0 -31 -4 -41 -42 -22 -81 13 -108 116 -89 107 20 169 85
194 201 7 37 10 173 8 425 l-3 370 -80 3 c-45 1 -84 0 -88 -4z"/>
</g>
</svg>
